<svg width="32" height="32" viewBox="0 0 32 32" fill="none" xmlns="http://www.w3.org/2000/svg">
<rect width="32" height="32" rx="6" fill="#D9D9D9"/>
<path d="M6.4194 18.0597C6.10122 18.0597 5.81783 18.005 5.56926 17.8956C5.3221 17.7848 5.12678 17.6328 4.98332 17.4396C4.84127 17.245 4.76812 17.0206 4.76386 16.7663H5.69283C5.69852 16.8729 5.73332 16.9666 5.79724 17.0476C5.86258 17.1271 5.94923 17.1889 6.05718 17.233C6.16514 17.277 6.28658 17.299 6.42153 17.299C6.56215 17.299 6.68644 17.2741 6.7944 17.2244C6.90235 17.1747 6.98687 17.1058 7.04795 17.0178C7.10903 16.9297 7.13957 16.8281 7.13957 16.7131C7.13957 16.5966 7.1069 16.4936 7.04156 16.4041C6.97764 16.3132 6.88531 16.2422 6.76457 16.1911C6.64525 16.1399 6.5032 16.1143 6.33843 16.1143H5.93147V15.4368H6.33843C6.47764 15.4368 6.60051 15.4126 6.70704 15.3643C6.81499 15.3161 6.8988 15.2493 6.95846 15.1641C7.01812 15.0774 7.04795 14.9766 7.04795 14.8615C7.04795 14.7521 7.02167 14.6562 6.96911 14.5739C6.91798 14.4901 6.84553 14.4247 6.75178 14.3778C6.65945 14.331 6.5515 14.3075 6.42792 14.3075C6.30292 14.3075 6.18857 14.3303 6.08488 14.3757C5.98119 14.4197 5.89809 14.483 5.83559 14.5653C5.77309 14.6477 5.73971 14.7443 5.73545 14.8551H4.85122C4.85548 14.6037 4.92721 14.3821 5.06641 14.1903C5.20562 13.9986 5.39312 13.8487 5.62891 13.7408C5.86613 13.6314 6.13389 13.5767 6.43218 13.5767C6.73332 13.5767 6.99681 13.6314 7.22266 13.7408C7.44852 13.8501 7.62394 13.9979 7.74894 14.1839C7.87536 14.3686 7.93786 14.576 7.93644 14.8061C7.93786 15.0504 7.86187 15.2543 7.70846 15.4176C7.55647 15.581 7.35832 15.6847 7.114 15.7287V15.7628C7.43502 15.804 7.67934 15.9155 7.84695 16.0973C8.01599 16.2777 8.09979 16.5036 8.09837 16.7749C8.09979 17.0234 8.02806 17.2443 7.88318 17.4375C7.73971 17.6307 7.54156 17.7827 7.28872 17.8935C7.03587 18.0043 6.7461 18.0597 6.4194 18.0597ZM8.76155 18V17.3352L10.3148 15.897C10.4469 15.7692 10.5577 15.6541 10.6472 15.5518C10.7381 15.4496 10.807 15.3494 10.8539 15.2514C10.9008 15.152 10.9242 15.0447 10.9242 14.9297C10.9242 14.8018 10.8951 14.6918 10.8368 14.5994C10.7786 14.5057 10.699 14.4339 10.5982 14.3842C10.4973 14.3331 10.383 14.3075 10.2552 14.3075C10.1216 14.3075 10.0052 14.3345 9.90573 14.3885C9.80629 14.4425 9.72959 14.5199 9.67561 14.6207C9.62163 14.7216 9.59465 14.8416 9.59465 14.9808H8.71894C8.71894 14.6953 8.78357 14.4474 8.91283 14.2372C9.04209 14.027 9.2232 13.8643 9.45615 13.7493C9.68911 13.6342 9.95757 13.5767 10.2615 13.5767C10.574 13.5767 10.8461 13.6321 11.0776 13.7429C11.3106 13.8523 11.4917 14.0043 11.6209 14.1989C11.7502 14.3935 11.8148 14.6165 11.8148 14.8679C11.8148 15.0327 11.7821 15.1953 11.7168 15.3558C11.6529 15.5163 11.5385 15.6946 11.3738 15.8906C11.209 16.0852 10.9767 16.3189 10.677 16.5916L10.04 17.2159V17.2457H11.8723V18H8.76155ZM16.6078 17.3949L14.0616 14.853L14.6199 14.2884L17.1682 16.8366L16.6078 17.3949ZM14.6199 17.3949L14.0616 16.8366L16.6078 14.2884L17.1682 14.853L14.6199 17.3949ZM21.0092 18.0597C20.6911 18.0597 20.4077 18.005 20.1591 17.8956C19.9119 17.7848 19.7166 17.6328 19.5732 17.4396C19.4311 17.245 19.358 17.0206 19.3537 16.7663H20.2827C20.2884 16.8729 20.3232 16.9666 20.3871 17.0476C20.4524 17.1271 20.5391 17.1889 20.647 17.233C20.755 17.277 20.8764 17.299 21.0114 17.299C21.152 17.299 21.2763 17.2741 21.3842 17.2244C21.4922 17.1747 21.5767 17.1058 21.6378 17.0178C21.6989 16.9297 21.7294 16.8281 21.7294 16.7131C21.7294 16.5966 21.6967 16.4936 21.6314 16.4041C21.5675 16.3132 21.4752 16.2422 21.3544 16.1911C21.2351 16.1399 21.093 16.1143 20.9283 16.1143H20.5213V15.4368H20.9283C21.0675 15.4368 21.1903 15.4126 21.2969 15.3643C21.4048 15.3161 21.4886 15.2493 21.5483 15.1641C21.608 15.0774 21.6378 14.9766 21.6378 14.8615C21.6378 14.7521 21.6115 14.6562 21.559 14.5739C21.5078 14.4901 21.4354 14.4247 21.3416 14.3778C21.2493 14.331 21.1413 14.3075 21.0178 14.3075C20.8928 14.3075 20.7784 14.3303 20.6747 14.3757C20.571 14.4197 20.4879 14.483 20.4254 14.5653C20.3629 14.6477 20.3296 14.7443 20.3253 14.8551H19.4411C19.4453 14.6037 19.5171 14.3821 19.6563 14.1903C19.7955 13.9986 19.983 13.8487 20.2188 13.7408C20.456 13.6314 20.7237 13.5767 21.022 13.5767C21.3232 13.5767 21.5867 13.6314 21.8125 13.7408C22.0384 13.8501 22.2138 13.9979 22.3388 14.1839C22.4652 14.3686 22.5277 14.576 22.5263 14.8061C22.5277 15.0504 22.4517 15.2543 22.2983 15.4176C22.1463 15.581 21.9482 15.6847 21.7038 15.7287V15.7628C22.0249 15.804 22.2692 15.9155 22.4368 16.0973C22.6058 16.2777 22.6896 16.5036 22.6882 16.7749C22.6896 17.0234 22.6179 17.2443 22.473 17.4375C22.3296 17.6307 22.1314 17.7827 21.8786 17.8935C21.6257 18.0043 21.3359 18.0597 21.0092 18.0597ZM23.3514 18V17.3352L24.9047 15.897C25.0368 15.7692 25.1476 15.6541 25.237 15.5518C25.328 15.4496 25.3968 15.3494 25.4437 15.2514C25.4906 15.152 25.514 15.0447 25.514 14.9297C25.514 14.8018 25.4849 14.6918 25.4267 14.5994C25.3684 14.5057 25.2889 14.4339 25.188 14.3842C25.0872 14.3331 24.9728 14.3075 24.845 14.3075C24.7115 14.3075 24.595 14.3345 24.4956 14.3885C24.3961 14.4425 24.3194 14.5199 24.2655 14.6207C24.2115 14.7216 24.1845 14.8416 24.1845 14.9808H23.3088C23.3088 14.6953 23.3734 14.4474 23.5027 14.2372C23.6319 14.027 23.813 13.8643 24.046 13.7493C24.2789 13.6342 24.5474 13.5767 24.8514 13.5767C25.1639 13.5767 25.4359 13.6321 25.6674 13.7429C25.9004 13.8523 26.0815 14.0043 26.2108 14.1989C26.34 14.3935 26.4047 14.6165 26.4047 14.8679C26.4047 15.0327 26.372 15.1953 26.3066 15.3558C26.2427 15.5163 26.1284 15.6946 25.9636 15.8906C25.7988 16.0852 25.5666 16.3189 25.2669 16.5916L24.6298 17.2159V17.2457H26.4622V18H23.3514Z" fill="black"/>
</svg>
