<svg width="176" height="32" viewBox="0 0 176 32" fill="none" xmlns="http://www.w3.org/2000/svg">
<rect width="176" height="32" fill="#D9D9D9"/>
<path d="M48.3778 7V23H44.995V10.2109H44.9012L41.2372 12.5078V9.50781L45.1981 7H48.3778ZM52.8133 23L59.4462 9.875V9.76562H51.7196V7H62.9462V9.80469L56.3055 23H52.8133ZM71.0614 23.2187C70.2385 23.2135 69.4442 23.0755 68.6786 22.8047C67.9182 22.5339 67.2359 22.0937 66.6317 21.4844C66.0275 20.875 65.5484 20.0677 65.1942 19.0625C64.8452 18.0573 64.6708 16.8229 64.6708 15.3594C64.676 14.0156 64.8296 12.8151 65.1317 11.7578C65.439 10.6953 65.8765 9.79427 66.4442 9.05469C67.0171 8.3151 67.702 7.7526 68.4989 7.36719C69.2958 6.97656 70.189 6.78125 71.1786 6.78125C72.2463 6.78125 73.189 6.98958 74.0067 7.40625C74.8244 7.81771 75.4807 8.3776 75.9754 9.08594C76.4754 9.79427 76.7775 10.5885 76.8817 11.4687H73.5458C73.4156 10.9115 73.1421 10.474 72.7254 10.1563C72.3088 9.83854 71.7932 9.67969 71.1786 9.67969C70.1369 9.67969 69.3452 10.1328 68.8036 11.0391C68.2671 11.9453 67.9937 13.1771 67.9833 14.7344H68.0926C68.3322 14.2604 68.6551 13.8568 69.0614 13.5234C69.4728 13.1849 69.939 12.9271 70.4598 12.75C70.9859 12.5677 71.5406 12.4766 72.1239 12.4766C73.0718 12.4766 73.9156 12.7005 74.6551 13.1484C75.3947 13.5911 75.9781 14.2005 76.4051 14.9766C76.8322 15.7526 77.0458 16.6406 77.0458 17.6406C77.0458 18.724 76.7932 19.6875 76.2879 20.5312C75.7879 21.375 75.0874 22.0365 74.1864 22.5156C73.2906 22.9896 72.2489 23.224 71.0614 23.2187ZM71.0458 20.5625C71.5666 20.5625 72.0327 20.4375 72.4442 20.1875C72.8557 19.9375 73.1786 19.599 73.4129 19.1719C73.6473 18.7448 73.7645 18.2656 73.7645 17.7344C73.7645 17.2031 73.6473 16.7266 73.4129 16.3047C73.1838 15.8828 72.8661 15.5469 72.4598 15.2969C72.0536 15.0469 71.59 14.9219 71.0692 14.9219C70.6786 14.9219 70.3166 14.9948 69.9833 15.1406C69.6551 15.2865 69.3661 15.4896 69.1161 15.75C68.8713 16.0104 68.6786 16.3125 68.5379 16.6562C68.3973 16.9948 68.327 17.3568 68.327 17.7422C68.327 18.2578 68.4442 18.7292 68.6786 19.1562C68.9182 19.5833 69.2411 19.9245 69.6473 20.1797C70.0588 20.4349 70.5249 20.5625 71.0458 20.5625ZM94.3563 20.7812L85.0204 11.4609L87.0672 9.39062L96.411 18.7344L94.3563 20.7812ZM87.0672 20.7812L85.0204 18.7344L94.3563 9.39062L96.411 11.4609L87.0672 20.7812ZM110.495 23.2187C109.328 23.2187 108.289 23.0182 107.378 22.6172C106.472 22.2109 105.755 21.6536 105.229 20.9453C104.709 20.2318 104.44 19.4089 104.425 18.4766H107.831C107.852 18.8672 107.979 19.2109 108.214 19.5078C108.453 19.7995 108.771 20.026 109.167 20.1875C109.563 20.349 110.008 20.4297 110.503 20.4297C111.018 20.4297 111.474 20.3385 111.87 20.1562C112.266 19.974 112.576 19.7214 112.8 19.3984C113.024 19.0755 113.136 18.7031 113.136 18.2812C113.136 17.8542 113.016 17.4766 112.776 17.1484C112.542 16.8151 112.203 16.5547 111.761 16.3672C111.323 16.1797 110.802 16.0859 110.198 16.0859H108.706V13.6016H110.198C110.709 13.6016 111.159 13.513 111.55 13.3359C111.946 13.1589 112.253 12.9141 112.472 12.6016C112.69 12.2839 112.8 11.9141 112.8 11.4922C112.8 11.0911 112.703 10.7396 112.511 10.4375C112.323 10.1302 112.057 9.89062 111.714 9.71875C111.375 9.54687 110.979 9.46094 110.526 9.46094C110.068 9.46094 109.649 9.54427 109.268 9.71094C108.888 9.8724 108.584 10.1042 108.354 10.4062C108.125 10.7083 108.003 11.0625 107.987 11.4687H104.745C104.761 10.5469 105.024 9.73437 105.534 9.03125C106.044 8.32812 106.732 7.77865 107.597 7.38281C108.466 6.98177 109.448 6.78125 110.542 6.78125C111.646 6.78125 112.612 6.98177 113.44 7.38281C114.268 7.78385 114.912 8.32552 115.37 9.00781C115.834 9.6849 116.063 10.4453 116.057 11.2891C116.063 12.1849 115.784 12.9323 115.222 13.5312C114.664 14.1302 113.938 14.5104 113.042 14.6719V14.7969C114.219 14.9479 115.115 15.3568 115.729 16.0234C116.349 16.6849 116.656 17.513 116.651 18.5078C116.656 19.4193 116.393 20.2292 115.862 20.9375C115.336 21.6458 114.61 22.2031 113.682 22.6094C112.755 23.0156 111.693 23.2187 110.495 23.2187ZM119.083 23V20.5625L124.778 15.2891C125.263 14.8203 125.669 14.3984 125.997 14.0234C126.33 13.6484 126.583 13.2812 126.755 12.9219C126.927 12.5573 127.013 12.1641 127.013 11.7422C127.013 11.2734 126.906 10.8698 126.692 10.5312C126.479 10.1875 126.187 9.92448 125.817 9.74219C125.447 9.55469 125.028 9.46094 124.559 9.46094C124.07 9.46094 123.643 9.5599 123.278 9.75781C122.914 9.95573 122.632 10.2396 122.434 10.6094C122.237 10.9792 122.138 11.4193 122.138 11.9297H118.927C118.927 10.8828 119.164 9.97396 119.638 9.20312C120.112 8.43229 120.776 7.83594 121.63 7.41406C122.484 6.99219 123.468 6.78125 124.583 6.78125C125.729 6.78125 126.726 6.98437 127.575 7.39062C128.429 7.79167 129.093 8.34896 129.567 9.0625C130.041 9.77604 130.278 10.5937 130.278 11.5156C130.278 12.1198 130.158 12.7161 129.919 13.3047C129.684 13.8932 129.265 14.5469 128.661 15.2656C128.057 15.9792 127.205 16.8359 126.106 17.8359L123.77 20.125V20.2344H130.489V23H119.083Z" fill="black"/>
</svg>
