<svg width="1921" height="317" viewBox="0 0 1921 317" fill="none" xmlns="http://www.w3.org/2000/svg">
<rect width="1921" height="317" fill="#D9D9D9"/>
<path d="M299.962 49.3406V267.522H253.833V93.1261H252.554L202.59 124.447V83.5381L256.603 49.3406H299.962ZM430.759 46.3577C441.981 46.3577 452.776 48.2398 463.146 52.004C473.586 55.7682 482.89 61.7696 491.057 70.0083C499.296 78.2469 505.795 89.1844 510.553 102.821C515.383 116.386 517.833 133.041 517.904 152.785C517.904 171.322 515.809 187.87 511.619 202.43C507.499 216.919 501.569 229.241 493.827 239.397C486.086 249.554 476.746 257.295 465.809 262.622C454.871 267.878 442.655 270.505 429.161 270.505C414.602 270.505 401.746 267.7 390.596 262.089C379.445 256.407 370.461 248.701 363.643 238.971C356.896 229.17 352.812 218.162 351.391 205.946H396.881C398.657 213.9 402.386 220.079 408.067 224.483C413.749 228.815 420.78 230.981 429.161 230.981C443.366 230.981 454.161 224.802 461.548 212.444C468.934 200.015 472.663 183.005 472.734 161.415H471.242C467.975 167.807 463.572 173.311 458.032 177.927C452.492 182.473 446.136 185.988 438.962 188.474C431.86 190.96 424.296 192.203 416.271 192.203C403.415 192.203 391.945 189.184 381.86 183.147C371.775 177.111 363.82 168.801 357.996 158.218C352.173 147.636 349.261 135.562 349.261 121.997C349.19 107.366 352.563 94.3335 359.381 82.8989C366.2 71.4642 375.717 62.5154 387.932 56.0523C400.219 49.5182 414.495 46.2867 430.759 46.3577ZM431.079 82.5793C423.905 82.5793 417.513 84.2838 411.903 87.6929C406.363 91.102 401.959 95.683 398.692 101.436C395.496 107.189 393.934 113.616 394.005 120.718C394.005 127.892 395.567 134.355 398.692 140.108C401.888 145.789 406.221 150.335 411.69 153.744C417.229 157.082 423.55 158.751 430.653 158.751C435.979 158.751 440.915 157.757 445.461 155.768C450.006 153.78 453.948 151.045 457.286 147.565C460.695 144.014 463.359 139.93 465.276 135.314C467.194 130.697 468.153 125.797 468.153 120.612C468.082 113.723 466.448 107.402 463.252 101.649C460.056 95.896 455.653 91.2796 450.042 87.7994C444.431 84.3193 438.11 82.5793 431.079 82.5793ZM549.864 267.522V234.284L627.528 162.373C634.133 155.981 639.673 150.228 644.147 145.115C648.692 140.001 652.137 134.994 654.481 130.093C656.825 125.122 657.996 119.76 657.996 114.007C657.996 107.615 656.54 102.111 653.628 97.494C650.717 92.8065 646.739 89.2199 641.697 86.7341C636.654 84.1773 630.937 82.8989 624.545 82.8989C617.869 82.8989 612.045 84.2483 607.073 86.9472C602.102 89.646 598.266 93.5168 595.567 98.5594C592.869 103.602 591.519 109.603 591.519 116.564H547.734C547.734 102.288 550.965 89.8946 557.428 79.3833C563.891 68.8719 572.947 60.7398 584.594 54.9869C596.242 49.2341 609.665 46.3577 624.864 46.3577C640.489 46.3577 654.09 49.1276 665.667 54.6673C677.315 60.1361 686.37 67.7355 692.833 77.4656C699.296 87.1957 702.528 98.3463 702.528 110.917C702.528 119.156 700.894 127.288 697.627 135.314C694.431 143.339 688.714 152.253 680.475 162.054C672.236 171.784 660.624 183.467 645.638 197.103L613.785 228.318V229.809H705.404V267.522H549.864ZM833.751 49.3406V267.522H787.622V93.1261H786.343L736.379 124.447V83.5381L790.392 49.3406H833.751ZM1088.95 237.267L961.645 110.172L989.557 81.9401L1116.97 209.355L1088.95 237.267ZM989.557 237.267L961.645 209.355L1088.95 81.9401L1116.97 110.172L989.557 237.267ZM1309.03 270.505C1293.12 270.505 1278.95 267.771 1266.52 262.302C1254.16 256.763 1244.4 249.163 1237.22 239.504C1230.12 229.774 1226.46 218.552 1226.25 205.839H1272.7C1272.98 211.166 1274.72 215.853 1277.92 219.902C1281.19 223.879 1285.52 226.968 1290.92 229.17C1296.31 231.372 1302.39 232.473 1309.13 232.473C1316.16 232.473 1322.38 231.23 1327.78 228.744C1333.17 226.258 1337.4 222.814 1340.45 218.41C1343.51 214.007 1345.03 208.929 1345.03 203.176C1345.03 197.352 1343.4 192.203 1340.13 187.728C1336.94 183.183 1332.32 179.632 1326.28 177.075C1320.32 174.518 1313.22 173.24 1304.98 173.24H1284.63V139.362H1304.98C1311.94 139.362 1318.08 138.155 1323.41 135.74C1328.81 133.325 1333 129.987 1335.98 125.726C1338.96 121.393 1340.45 116.351 1340.45 110.598C1340.45 105.129 1339.14 100.335 1336.51 96.2156C1333.96 92.0253 1330.33 88.7583 1325.65 86.4145C1321.03 84.0708 1315.63 82.8989 1309.45 82.8989C1303.2 82.8989 1297.49 84.0352 1292.3 86.308C1287.12 88.5097 1282.96 91.6702 1279.84 95.7895C1276.71 99.9088 1275.04 104.738 1274.83 110.278H1230.62C1230.83 97.7071 1234.42 86.6276 1241.38 77.0395C1248.34 67.4514 1257.71 59.9585 1269.5 54.5608C1281.36 49.0921 1294.75 46.3577 1309.67 46.3577C1324.72 46.3577 1337.9 49.0921 1349.19 54.5608C1360.48 60.0296 1369.25 67.4159 1375.5 76.7199C1381.82 85.9529 1384.95 96.3222 1384.88 107.828C1384.95 120.044 1381.15 130.236 1373.48 138.403C1365.88 146.571 1355.97 151.755 1343.76 153.957V155.662C1359.81 157.721 1372.02 163.297 1380.4 172.388C1388.86 181.407 1393.05 192.7 1392.98 206.265C1393.05 218.694 1389.46 229.738 1382.22 239.397C1375.04 249.057 1365.13 256.656 1352.49 262.196C1339.85 267.736 1325.36 270.505 1309.03 270.505ZM1521.06 49.3406V267.522H1474.93V93.1261H1473.65L1423.68 124.447V83.5381L1477.7 49.3406H1521.06ZM1581.54 267.522L1671.99 88.5452V87.0537H1566.63V49.3406H1719.72V87.5864L1629.16 267.522H1581.54Z" fill="black"/>
</svg>
