<svg width="48" height="48" viewBox="0 0 48 48" fill="none" xmlns="http://www.w3.org/2000/svg">
<g clip-path="url(#clip0_32_10)">
<path d="M24 48C37.2548 48 48 37.2548 48 24C48 10.7452 37.2548 0 24 0C10.7452 0 0 10.7452 0 24C0 37.2548 10.7452 48 24 48Z" fill="#D9D9D9"/>
<circle cx="24" cy="24" r="12" fill="#7B69FF"/>
<path d="M17.2827 25V24.5568L18.3182 23.598C18.4063 23.5128 18.4801 23.4361 18.5398 23.3679C18.6004 23.2997 18.6463 23.233 18.6776 23.1676C18.7088 23.1013 18.7244 23.0298 18.7244 22.9531C18.7244 22.8679 18.705 22.7945 18.6662 22.733C18.6274 22.6705 18.5743 22.6226 18.5071 22.5895C18.4399 22.5554 18.3636 22.5384 18.2784 22.5384C18.1894 22.5384 18.1117 22.5563 18.0455 22.5923C17.9792 22.6283 17.928 22.6799 17.892 22.7472C17.8561 22.8144 17.8381 22.8944 17.8381 22.9872H17.2543C17.2543 22.7969 17.2973 22.6316 17.3835 22.4915C17.4697 22.3513 17.5904 22.2429 17.7457 22.1662C17.901 22.0895 18.08 22.0511 18.2827 22.0511C18.491 22.0511 18.6723 22.0881 18.8267 22.1619C18.982 22.2348 19.1027 22.3362 19.1889 22.4659C19.2751 22.5956 19.3182 22.7443 19.3182 22.9119C19.3182 23.0218 19.2964 23.1302 19.2528 23.2372C19.2102 23.3442 19.134 23.4631 19.0241 23.5938C18.9143 23.7235 18.7595 23.8793 18.5597 24.0611L18.1349 24.4773V24.4972H19.3565V25H17.2827ZM19.6957 24.4886V24.0043L20.9102 22.0909H21.3278V22.7614H21.0806L20.315 23.973V23.9957H22.0408V24.4886H19.6957ZM21.092 25V24.3409L21.1033 24.1264V22.0909H21.68V25H21.092ZM25.1619 24.5966L23.4645 22.902L23.8366 22.5256L25.5355 24.2244L25.1619 24.5966ZM23.8366 24.5966L23.4645 24.2244L25.1619 22.5256L25.5355 22.902L23.8366 24.5966ZM27.021 25V24.5568L28.0565 23.598C28.1445 23.5128 28.2184 23.4361 28.2781 23.3679C28.3387 23.2997 28.3846 23.233 28.4158 23.1676C28.4471 23.1013 28.4627 23.0298 28.4627 22.9531C28.4627 22.8679 28.4433 22.7945 28.4045 22.733C28.3656 22.6705 28.3126 22.6226 28.2454 22.5895C28.1781 22.5554 28.1019 22.5384 28.0167 22.5384C27.9277 22.5384 27.85 22.5563 27.7837 22.5923C27.7174 22.6283 27.6663 22.6799 27.6303 22.7472C27.5943 22.8144 27.5763 22.8944 27.5763 22.9872H26.9925C26.9925 22.7969 27.0356 22.6316 27.1218 22.4915C27.208 22.3513 27.3287 22.2429 27.484 22.1662C27.6393 22.0895 27.8183 22.0511 28.021 22.0511C28.2293 22.0511 28.4106 22.0881 28.565 22.1619C28.7203 22.2348 28.841 22.3362 28.9272 22.4659C29.0134 22.5956 29.0565 22.7443 29.0565 22.9119C29.0565 23.0218 29.0347 23.1302 28.9911 23.2372C28.9485 23.3442 28.8723 23.4631 28.7624 23.5938C28.6526 23.7235 28.4978 23.8793 28.2979 24.0611L27.8732 24.4773V24.4972H29.0948V25H27.021ZM29.4339 24.4886V24.0043L30.6484 22.0909H31.0661V22.7614H30.8189L30.0533 23.973V23.9957H31.7791V24.4886H29.4339ZM30.8303 25V24.3409L30.8416 24.1264V22.0909H31.4183V25H30.8303Z" fill="white"/>
</g>
<defs>
<clipPath id="clip0_32_10">
<rect width="48" height="48" fill="white"/>
</clipPath>
</defs>
</svg>
